<?xml version="1.0" standalone="no"?>
<!DOCTYPE svg PUBLIC "-//W3C//DTD SVG 20010904//EN"
 "http://www.w3.org/TR/2001/REC-SVG-20010904/DTD/svg10.dtd">
<svg version="1.0" xmlns="http://www.w3.org/2000/svg"
 width="176.000000pt" height="70.000000pt" viewBox="0 0 176.000000 70.000000"
 preserveAspectRatio="xMidYMid meet">
<metadata>
Created by potrace 1.16, written by Peter Selinger 2001-2019
</metadata>
<g transform="translate(0.000000,70.000000) scale(0.100000,-0.100000)"
fill="#000000" stroke="none">
<path d="M226 685 c5 -13 2 -14 -22 -5 -37 15 -100 -13 -120 -52 -8 -16 -19
-26 -24 -23 -6 3 -7 -1 -4 -10 4 -9 13 -14 21 -11 7 3 16 -1 19 -9 4 -8 11
-12 18 -8 6 4 5 -1 -3 -10 -7 -9 -17 -14 -22 -11 -5 3 -9 0 -9 -5 0 -6 8 -11
17 -11 9 0 13 -3 10 -6 -3 -4 -22 1 -42 10 -38 18 -47 31 -15 21 23 -7 27 7 6
24 -12 10 -18 7 -31 -20 -15 -28 -15 -33 -2 -40 8 -5 23 -21 32 -36 15 -23 16
-26 2 -15 -9 8 -21 11 -26 8 -5 -4 -15 2 -21 11 -11 17 -11 17 -6 1 3 -10 9
-25 13 -35 4 -9 2 -14 -3 -10 -6 3 -10 -3 -11 -13 -2 -23 13 -35 23 -19 5 8 3
9 -7 4 -12 -8 -12 -6 0 8 7 9 21 17 30 16 12 0 11 -2 -4 -9 -11 -5 -14 -9 -7
-9 10 -1 10 -5 -2 -16 -14 -14 -14 -18 2 -34 9 -10 21 -16 26 -13 5 3 6 -1 1
-8 -6 -10 -11 -9 -21 5 -8 11 -20 15 -30 11 -14 -5 -13 -9 7 -26 13 -11 20
-20 14 -19 -24 3 -34 -2 -29 -16 4 -8 13 -15 21 -15 8 0 11 -4 8 -10 -4 -6 1
-7 12 -4 12 4 10 0 -7 -14 -13 -11 -28 -18 -32 -16 -4 3 -8 1 -8 -5 0 -5 4
-12 9 -15 4 -3 7 -17 6 -30 -2 -14 5 -32 16 -42 12 -11 17 -25 13 -38 -4 -17
-3 -18 5 -6 7 9 14 11 19 5 4 -5 13 -11 21 -13 11 -2 12 0 4 10 -6 7 -12 18
-12 23 -1 6 -5 11 -11 11 -5 1 -16 2 -22 3 -7 1 -2 10 11 20 22 17 22 41 0 41
-6 0 -7 -5 -3 -12 4 -7 3 -8 -4 -4 -7 4 -17 16 -23 28 -9 16 -8 19 2 13 8 -5
10 -4 5 3 -4 7 -2 12 4 12 6 0 9 -8 6 -18 -4 -13 -1 -18 14 -18 11 0 20 5 20
11 0 5 4 4 9 -4 5 -8 8 -33 6 -57 -1 -29 2 -45 11 -48 8 -3 13 -2 13 2 -1 4
-1 16 1 27 l1 20 8 -20 c5 -11 7 -23 5 -27 -2 -3 9 -9 26 -13 16 -4 33 -11 36
-17 4 -7 2 -8 -4 -4 -15 9 -15 3 0 -29 6 -14 17 -25 24 -25 7 0 16 -4 19 -10
7 -11 -23 -2 -42 13 -9 7 -13 5 -13 -6 0 -9 8 -18 18 -21 27 -9 124 -4 110 6
-9 5 -6 8 9 8 12 0 25 -5 28 -10 5 -8 11 -7 21 1 9 7 14 8 14 1 0 -6 12 -8 28
-6 15 3 32 5 39 6 7 1 12 4 11 7 -2 25 3 31 16 19 10 -9 11 -17 4 -25 -8 -10
-6 -13 5 -13 9 0 19 5 22 10 4 6 11 8 16 5 5 -4 9 1 9 10 0 9 -4 14 -8 11 -4
-2 -14 -1 -22 4 -10 6 -5 8 15 6 17 -1 37 -6 45 -11 11 -7 11 -3 -3 18 -17 27
-14 32 21 28 6 -1 12 5 12 13 0 8 6 17 13 19 7 3 5 6 -5 6 -10 1 -18 6 -18 11
0 15 16 12 30 -5 10 -13 10 -19 -4 -33 -9 -10 -13 -22 -9 -26 4 -4 -1 -4 -12
0 -16 6 -18 4 -8 -6 16 -17 45 -5 41 17 -2 12 3 18 16 18 11 0 21 6 24 14 3 8
0 11 -6 7 -6 -3 -13 3 -17 14 -4 11 -11 17 -17 14 -7 -5 -8 -2 -3 6 6 10 11 9
22 -5 9 -13 13 -14 13 -5 0 9 5 7 14 -5 8 -11 13 -23 10 -26 -2 -3 17 -6 42
-6 33 0 47 5 55 18 6 12 6 19 0 19 -5 0 -12 -6 -15 -12 -3 -7 -3 -2 0 12 8 31
23 49 21 24 -1 -10 9 -24 23 -31 14 -7 24 -18 22 -24 -1 -6 3 -7 9 -4 8 5 8
10 0 18 -6 6 -11 16 -11 22 0 5 9 -3 21 -20 14 -21 19 -24 17 -11 -2 10 3 21
11 24 8 2 11 0 8 -6 -11 -16 17 -32 56 -30 27 1 34 4 27 13 -7 9 -6 16 3 24
17 13 27 5 27 -21 0 -21 21 -20 28 2 3 7 0 10 -5 7 -5 -3 -10 3 -10 14 -1 10
3 19 8 19 6 0 7 -5 4 -10 -3 -6 -2 -10 4 -10 5 0 15 8 21 17 8 15 9 13 4 -8
-4 -20 -1 -28 13 -33 10 -3 24 -9 31 -12 7 -3 12 2 12 14 0 25 9 33 29 23 9
-4 31 -2 50 4 22 8 29 14 20 18 -8 3 -9 6 -2 6 6 1 14 -3 18 -9 3 -5 12 -7 19
-4 8 3 17 1 21 -5 3 -6 2 -11 -4 -11 -5 0 -17 -3 -27 -7 -13 -5 -15 -3 -9 8 6
9 0 8 -19 -5 -18 -11 -25 -13 -21 -5 5 8 4 10 0 6 -20 -17 -11 -33 19 -35 29
-3 29 -2 11 11 -17 13 -16 14 21 12 21 -2 43 -4 47 -4 5 -1 6 -5 2 -10 -7 -13
36 -10 53 2 9 7 17 6 24 -1 9 -9 16 -8 30 5 18 16 18 16 12 -3 -4 -10 -3 -16
1 -11 5 4 9 17 11 30 4 33 5 34 14 7 7 -23 8 -24 9 -3 1 20 4 21 31 12 17 -6
30 -18 30 -27 0 -12 -3 -13 -12 -4 -16 16 -25 15 -32 -4 -5 -13 -4 -14 7 -6 8
7 17 8 21 4 12 -11 30 -9 45 6 8 8 17 9 25 4 6 -5 28 -8 49 -5 25 2 36 0 32
-7 -7 -12 2 -12 30 0 15 7 16 9 4 9 -12 1 -15 8 -11 27 3 15 1 25 -4 22 -5 -3
-18 3 -28 13 -11 11 -14 19 -8 19 6 0 14 -4 17 -10 8 -13 35 -13 35 1 0 5 -4
8 -9 4 -5 -3 -13 0 -17 6 -4 8 -3 9 4 5 7 -4 12 -1 12 6 1 8 7 5 16 -7 16 -19
16 -19 10 5 -6 23 -6 23 7 8 8 -10 23 -18 33 -19 18 0 18 -1 -1 -9 -17 -7 -17
-9 -3 -9 23 -1 43 35 26 46 -7 4 -19 8 -26 9 -18 3 -29 14 -14 14 7 0 12 4 12
10 0 5 -3 9 -7 8 -5 0 -16 2 -25 6 -14 6 -15 13 -7 34 6 15 10 29 9 32 -1 2 4
6 10 8 9 3 9 -1 0 -18 -15 -27 -5 -54 16 -46 23 9 37 -3 23 -20 -10 -12 -9
-13 5 -8 11 4 15 13 10 26 -4 15 -3 18 6 13 8 -5 11 -4 6 3 -4 6 -12 9 -20 6
-7 -3 -13 2 -13 10 0 8 8 13 19 11 19 -4 25 10 8 20 -8 5 -7 11 0 20 13 16 5
35 -14 35 -8 0 -20 -8 -27 -17 -12 -15 -12 -16 1 -8 23 14 39 14 34 0 -3 -7
-15 -12 -27 -11 -18 1 -21 7 -19 29 1 15 -2 27 -8 27 -5 0 -10 -10 -10 -22 0
-13 -7 -31 -14 -40 -12 -17 -14 -17 -32 3 -12 13 -14 19 -5 17 7 -2 16 3 19
11 3 9 0 11 -8 6 -8 -5 -11 -4 -6 3 3 6 2 13 -4 17 -5 3 -10 1 -10 -6 0 -7 -3
-9 -7 -6 -3 4 4 17 17 29 19 18 26 19 42 9 10 -6 24 -9 30 -5 6 4 8 3 4 -4 -3
-6 -2 -13 4 -17 5 -3 10 0 10 7 0 9 3 9 10 -2 6 -9 10 -10 10 -3 0 6 3 20 7
30 6 16 5 16 -10 4 -9 -7 -17 -9 -17 -3 0 5 -9 12 -19 15 -15 3 -18 1 -14 -12
4 -12 3 -13 -6 -5 -13 12 -4 47 10 38 5 -3 5 6 0 19 -6 14 -8 28 -5 31 2 3 1
4 -3 1 -3 -3 -13 4 -20 15 -12 17 -22 20 -55 15 -22 -4 -38 -2 -35 2 3 5 -3
10 -14 10 -10 1 -19 -2 -19 -8 0 -5 -5 -9 -11 -9 -5 0 -7 6 -3 13 5 9 3 9 -7
-1 -12 -11 -12 -14 0 -21 9 -6 10 -11 2 -15 -6 -4 -11 -4 -11 1 0 4 -5 1 -10
-7 -8 -12 -10 -10 -10 8 0 13 -4 21 -8 18 -4 -2 -14 0 -22 6 -13 8 -13 9 1 5
9 -3 22 -1 30 4 10 6 8 9 -11 9 -14 0 -32 -5 -40 -10 -10 -6 -11 -10 -2 -10 6
0 12 -7 12 -15 0 -8 -5 -15 -11 -15 -5 0 -7 -6 -3 -12 4 -7 -2 -4 -14 6 -12
11 -22 16 -22 11 0 -4 -6 -2 -13 4 -8 6 -17 8 -21 4 -4 -4 -4 1 0 11 5 13 9
14 15 5 4 -7 18 -14 31 -16 l23 -3 -25 16 c-14 8 -17 13 -7 10 9 -3 17 -1 17
3 0 5 -16 9 -35 9 -26 0 -35 -4 -36 -16 0 -14 -1 -15 -7 -2 -10 21 -47 27 -39
6 4 -9 1 -17 -6 -18 -50 -6 -74 -9 -90 -9 -11 0 -17 -5 -14 -13 4 -10 -1 -12
-15 -8 -15 4 -16 7 -6 13 19 12 16 33 -7 40 -24 7 -47 0 -39 -12 3 -5 1 -9 -4
-9 -9 0 -26 29 -24 41 0 3 -6 6 -14 6 -15 0 -18 -15 -8 -41 3 -9 10 -13 15
-10 5 3 9 -3 9 -13 -1 -15 -5 -13 -26 11 -17 19 -24 37 -21 53 4 20 0 23 -27
23 -22 0 -27 -3 -17 -9 8 -5 16 -17 17 -25 1 -9 -2 -14 -7 -10 -5 3 -7 10 -4
15 3 5 0 6 -8 3 -8 -3 -17 2 -21 11 -7 19 -26 11 -26 -11 0 -8 4 -12 10 -9 6
4 7 -1 3 -11 -5 -14 -8 -13 -19 7 -7 13 -10 27 -8 31 3 5 0 8 -5 8 -6 0 -11
-6 -11 -14 0 -8 -4 -17 -9 -21 -6 -3 -8 4 -6 15 4 22 -19 28 -31 8 -4 -7 -3
-8 4 -4 7 4 12 2 12 -4 0 -7 -6 -10 -14 -7 -7 3 -18 1 -24 -5 -8 -8 -16 -7
-27 2 -13 11 -15 10 -10 -3 8 -19 50 -28 67 -13 7 6 3 -1 -10 -15 -12 -14 -19
-29 -15 -34 5 -4 -2 -2 -14 4 -13 6 -23 17 -23 24 0 8 -3 7 -9 -2 -5 -8 -7
-20 -4 -28 8 -21 -5 -15 -18 8 -6 12 -7 19 -1 15 5 -3 12 3 15 14 6 23 -3 26
-22 8 -11 -11 -12 -10 -6 2 6 12 5 12 -4 4 -10 -9 -10 -17 -1 -34 6 -12 9 -25
5 -28 -9 -10 -25 20 -25 48 -1 23 -2 23 -14 8 -7 -10 -15 -15 -18 -12 -3 2 -4
-10 -3 -28 l3 -33 -13 30 c-12 27 -11 32 6 48 11 10 16 23 12 30 -5 8 -9 7
-11 -5 -4 -20 -17 -24 -27 -8 -3 6 -1 10 4 10 6 0 11 5 11 10 0 19 -26 10 -27
-10 -1 -11 2 -20 6 -20 5 0 6 -11 3 -25 -2 -14 -8 -25 -13 -25 -5 0 -6 6 -3
14 3 7 -6 20 -20 29 -17 11 -23 22 -19 37 4 14 0 20 -11 21 -9 1 -21 2 -27 3
-7 0 -15 10 -20 21 l-8 20 -1 -20 c-2 -11 -2 -23 -2 -26 1 -4 -8 -5 -18 -2
-11 3 -20 9 -20 14 0 5 -5 9 -11 9 -5 0 -7 -4 -4 -10 3 -5 -1 -10 -10 -10 -9
0 -14 4 -10 9 3 5 1 12 -5 16 -5 3 -10 12 -10 18 0 7 4 6 10 -3 6 -9 10 -10
10 -3 0 19 -21 27 -82 29 -55 2 -57 2 -47 -18 8 -15 8 -19 0 -14 -6 4 -11 3
-11 -2 0 -6 -7 -13 -16 -16 -8 -3 -12 -2 -9 4 3 6 1 10 -4 10 -6 0 -11 7 -11
15 0 8 5 15 11 15 5 0 7 -4 4 -10 -3 -5 -1 -10 5 -10 15 0 8 22 -8 28 -12 4
-37 -44 -34 -63 1 -5 -9 3 -22 19 -22 27 -24 27 -35 10 -10 -16 -10 -15 -5 9
4 16 2 27 -5 27 -6 0 -8 -7 -5 -15z m106 -265 c19 -27 23 -28 38 -15 9 8 30
17 46 21 41 8 94 -35 94 -77 0 -29 -1 -29 -55 -29 -30 0 -55 -4 -55 -9 0 -15
31 -21 52 -10 16 9 24 7 37 -6 15 -15 15 -17 -3 -31 -33 -24 -84 -18 -117 15
-16 16 -29 40 -29 52 0 18 -3 20 -12 11 -9 -9 -8 -20 5 -47 22 -46 22 -45 -13
-45 -25 0 -33 6 -47 35 -9 19 -20 35 -25 35 -4 0 -8 -16 -8 -35 0 -32 -2 -35
-30 -35 l-30 0 0 100 0 100 65 0 c60 0 66 -2 87 -30z"/>
</g>
</svg>
